<svg
        width="180"
        height="42"
        viewBox="0 0 488 129"
        fill="none"
        xmlns="http://www.w3.org/2000/svg">
    <path
            fill-rule="evenodd"
            clip-rule="evenodd"
            d="M91.357 3.69768C89.6338 2.69096 87.8733 1.75625 86.0799 0.895151C82.0371 -1.04606 79.6379 4.41575 82.9478 7.44181C100.452 23.4447 107.776 43.1088 109.306 52.8681C110.242 56.4352 115.925 56.9199 121.33 57.3807C126.893 57.8552 132.161 58.3044 131.646 62.0662C130.631 69.4818 128.165 76.6248 124.389 83.0874C120.614 89.55 115.602 95.2057 109.641 99.7315C103.679 104.257 96.8846 107.565 89.645 109.464C85.8957 110.448 82.0651 111.045 78.2129 111.25C77.8974 111.201 77.5727 111.186 77.2438 111.208C76.2752 111.272 75.3057 111.311 74.3364 111.325C73.366 111.311 72.3955 111.272 71.4258 111.208C71.0968 111.186 70.7719 111.201 70.4563 111.25C66.6042 111.045 62.7737 110.448 59.0246 109.465C51.785 107.565 44.9905 104.257 39.0291 99.7315C33.0677 95.2057 28.056 89.5501 24.2803 83.0874C20.5047 76.6248 18.0388 69.4818 17.0237 62.0662C16.5087 58.3045 21.7762 57.8553 27.3401 57.3808C32.7442 56.9199 38.4278 56.4353 39.3639 52.8682C40.894 43.1089 48.2176 23.4447 65.7218 7.44186C69.0318 4.4158 66.6325 -1.04602 62.5897 0.895196C60.7964 1.7563 59.0358 2.691 57.3127 3.69772C48.9556 8.58024 41.642 15.061 35.7895 22.77C29.937 30.479 25.6602 39.2652 23.2033 48.627C22.0172 53.1465 16.3723 54.7277 10.9978 56.2332C5.23933 57.8462 -0.208798 59.3723 0.470203 64.3323C1.78293 73.9217 4.97159 83.1587 9.8541 91.5158C14.7366 99.8729 21.2174 107.186 28.9263 113.039C36.6353 118.891 45.4216 123.168 54.7834 125.625C61.1773 127.303 67.7543 128.11 74.3368 128.034C80.9179 128.109 87.4936 127.303 93.8862 125.625C103.248 123.168 112.034 118.891 119.743 113.039C127.452 107.186 133.933 99.8728 138.816 91.5157C143.698 83.1586 146.887 73.9217 148.199 64.3323C148.878 59.3722 143.43 57.8461 137.672 56.2331C132.297 54.7276 126.652 53.1464 125.466 48.627C123.009 39.2652 118.733 30.4789 112.88 22.7699C107.028 15.061 99.714 8.58019 91.357 3.69768ZM102.37 72.5763C102.37 88.06 89.8184 100.612 74.3346 100.612C58.8509 100.612 46.2988 88.06 46.2988 72.5763C46.2988 57.0925 58.8509 44.5405 74.3346 44.5405C89.8184 44.5405 102.37 57.0925 102.37 72.5763ZM225.489 78.5918C221.097 85.8638 212.961 90.5438 203.673 90.5438C188.409 90.5438 177.393 79.0958 177.393 64.2638C177.393 49.4318 188.409 37.9838 203.673 37.9838C212.889 37.9838 221.097 42.6638 225.489 49.9358L214.329 56.3438C212.385 52.7438 208.353 50.5838 203.673 50.5838C195.537 50.5838 190.209 56.1998 190.209 64.2638C190.209 72.3278 195.537 77.9438 203.673 77.9438C208.353 77.9438 212.385 75.7838 214.329 72.1118L225.489 78.5918ZM253.388 90.5438C268.076 90.5438 279.812 79.0958 279.812 64.2638C279.812 49.4318 268.076 37.9838 253.388 37.9838C238.7 37.9838 226.964 49.4318 226.964 64.2638C226.964 79.0958 238.7 90.5438 253.388 90.5438ZM253.388 77.9438C245.684 77.9438 239.78 72.3278 239.78 64.2638C239.78 56.1998 245.684 50.5838 253.388 50.5838C261.091 50.5838 266.996 56.1998 266.996 64.2638C266.996 72.3278 261.091 77.9438 253.388 77.9438ZM313.582 39.0638V64.4078L295.798 39.0638H285.79V89.4638H298.678V64.1198L316.462 89.4638H326.398V39.0638H313.582ZM354.896 39.0638H334.376V89.4638H354.896C368.792 89.4638 379.376 78.5198 379.376 64.2638C379.376 50.0078 368.792 39.0638 354.896 39.0638ZM354.896 77.0078H347.624V51.5198H354.896C361.808 51.5198 366.776 56.5598 366.776 64.2638C366.776 71.9678 361.808 77.0078 354.896 77.0078ZM404.582 90.5438C416.174 90.5438 424.526 83.7038 424.526 72.9038V39.0638H411.638V71.6798C411.638 75.2798 409.838 78.0158 404.582 78.0158C399.326 78.0158 397.526 75.2798 397.526 71.6798V39.0638H384.638V72.9038C384.638 83.7038 392.99 90.5438 404.582 90.5438ZM431.97 89.4638H444.858V39.0638H431.97V89.4638ZM487.342 39.0638H449.542V51.5198H461.998V89.4638H474.886V51.5198H487.342V39.0638Z"
            fill="url(#paint0_linear_2617_15561)"></path>
    <defs>
        <linearGradient
                id="paint0_linear_2617_15561"
                y2="100%"
                gradientUnits="userSpaceOnUse"
                x2="0%">
            <stop stop-color="rgb(63, 47, 169)" offset="0.24"></stop>
            <stop offset="0.90" stop-color="#07D9C4"></stop>
            <stop offset="1" stop-color="rgb(56, 224, 207)"></stop>
        </linearGradient>
    </defs>
</svg>