<svg xmlns="http://www.w3.org/2000/svg"  viewBox="0 0 48 48" width="25px" height="25px"><linearGradient id="I93pW93qJSUhtSDIz1RZKa" x1="-248" x2="-238" y1="-234" y2="-234" gradientTransform="rotate(180 -112 -112)" gradientUnits="userSpaceOnUse"><stop offset=".266" stop-color="#199ae0"/><stop offset=".582" stop-color="#1898de"/><stop offset=".745" stop-color="#1590d6"/><stop offset=".873" stop-color="#1083c9"/><stop offset=".982" stop-color="#0870b7"/><stop offset="1" stop-color="#076cb3"/></linearGradient><path fill="url(#I93pW93qJSUhtSDIz1RZKa)" d="M14,13h9c0.552,0,1-0.448,1-1V8c0-0.552-0.448-1-1-1h-9V13z"/><linearGradient id="I93pW93qJSUhtSDIz1RZKb" x1="3.924" x2="17.001" y1="8.199" y2="41.867" gradientUnits="userSpaceOnUse"><stop offset="0" stop-color="#32bdef"/><stop offset="1" stop-color="#1ea2e4"/></linearGradient><path fill="url(#I93pW93qJSUhtSDIz1RZKb)" d="M18.19,32H14V7l-4.828,4.828C8.421,12.579,8,13.596,8,14.657V32H3.81	c-0.72,0-1.08,0.87-0.571,1.379l6.701,6.701c0.586,0.586,1.536,0.586,2.121,0l6.701-6.701C19.271,32.87,18.91,32,18.19,32z"/><linearGradient id="I93pW93qJSUhtSDIz1RZKc" x1="-365" x2="-355" y1="-231.472" y2="-231.472" gradientTransform="translate(389 269.472)" gradientUnits="userSpaceOnUse"><stop offset=".266" stop-color="#199ae0"/><stop offset=".582" stop-color="#1898de"/><stop offset=".745" stop-color="#1590d6"/><stop offset=".873" stop-color="#1083c9"/><stop offset=".982" stop-color="#0870b7"/><stop offset="1" stop-color="#076cb3"/></linearGradient><path fill="url(#I93pW93qJSUhtSDIz1RZKc)" d="M34,35h-9c-0.552,0-1,0.448-1,1v4c0,0.552,0.448,1,1,1h9V35z"/><linearGradient id="I93pW93qJSUhtSDIz1RZKd" x1="32.313" x2="44" y1="7.663" y2="40.775" gradientUnits="userSpaceOnUse"><stop offset="0" stop-color="#32bdef"/><stop offset="1" stop-color="#1ea2e4"/></linearGradient><path fill="url(#I93pW93qJSUhtSDIz1RZKd)" d="M29.81,16H34v25l4.828-4.828c0.75-0.75,1.172-1.768,1.172-2.828V16h4.19	c0.72,0,1.08-0.87,0.571-1.379L38.061,7.92c-0.586-0.586-1.536-0.586-2.121,0l-6.701,6.701C28.729,15.13,29.09,16,29.81,16z"/></svg>