<?xml version="1.0" encoding="UTF-8"?>
<svg id="uuid-5b473330-48ea-43c9-a928-f6c5a51e2fac" data-name="Layer 1" xmlns="http://www.w3.org/2000/svg" xmlns:xlink="http://www.w3.org/1999/xlink" viewBox="0 0 55.44 70.57">
  <defs>
    <linearGradient id="uuid-72f5cf84-db54-4199-a11e-22dfa096a5d1" x1="1289.93" y1="-693.72" x2="1289.93" y2="-822.72" gradientTransform="translate(-395.91 -213.72) scale(.33 -.33)" gradientUnits="userSpaceOnUse">
      <stop offset=".24" stop-color="#3f2fa9"/>
      <stop offset=".9" stop-color="#07d9c4"/>
      <stop offset="1" stop-color="#38e0cf"/>
    </linearGradient>
  </defs>
  <path d="M29.61,13.34c-.56-.33-1.13-.63-1.72-.91-1.32-.63-2.1,1.15-1.02,2.13,5.7,5.21,8.08,11.61,8.58,14.79,.3,1.16,2.16,1.32,3.91,1.47,1.81,.15,3.53,.3,3.36,1.53-.33,2.41-1.13,4.74-2.36,6.84-1.23,2.1-2.86,3.95-4.8,5.42-1.94,1.47-4.15,2.55-6.51,3.17-1.22,.32-2.47,.51-3.72,.58-.1-.02-.21-.02-.32-.01-.32,.02-.63,.03-.95,.04-.32,0-.63-.02-.95-.04-.11,0-.21,0-.32,.01-1.25-.07-2.5-.26-3.72-.58-2.36-.62-4.57-1.7-6.51-3.17-1.94-1.47-3.57-3.31-4.8-5.42-1.23-2.1-2.03-4.43-2.36-6.84-.17-1.22,1.55-1.37,3.36-1.53,1.76-.15,3.61-.31,3.91-1.47,.5-3.18,2.88-9.58,8.58-14.79,1.08-.99,.3-2.76-1.02-2.13-.58,.28-1.16,.58-1.72,.91-2.72,1.59-5.1,3.7-7.01,6.21-1.91,2.51-3.3,5.37-4.1,8.42-.39,1.47-2.22,1.99-3.97,2.48-1.87,.53-3.65,1.02-3.43,2.64,.43,3.12,1.47,6.13,3.06,8.85,1.59,2.72,3.7,5.1,6.21,7.01,2.51,1.91,5.37,3.3,8.42,4.1,2.08,.55,4.22,.81,6.37,.78,2.14,.02,4.28-.24,6.36-.78,3.05-.8,5.91-2.19,8.42-4.1,2.51-1.91,4.62-4.29,6.21-7.01,1.59-2.72,2.63-5.73,3.05-8.85,.22-1.61-1.55-2.11-3.43-2.64-1.75-.49-3.59-1-3.97-2.48-.8-3.05-2.19-5.91-4.1-8.42-1.91-2.51-4.29-4.62-7.01-6.21Zm3.59,22.43c0,5.04-4.09,9.13-9.13,9.13s-9.13-4.09-9.13-9.13,4.09-9.13,9.13-9.13,9.13,4.09,9.13,9.13Z" style="fill: url(#uuid-72f5cf84-db54-4199-a11e-22dfa096a5d1); fill-rule: evenodd;"/>
</svg>