<svg xmlns="http://www.w3.org/2000/svg"  viewBox="0 0 48 48" width="25px" height="25px"><linearGradient id="M~bdDD8~AbDFLBkBs2hIZa" x1="24" x2="24" y1="27.973" y2="46.018" gradientUnits="userSpaceOnUse"><stop offset="0" stop-color="#e5a505"/><stop offset=".01" stop-color="#e9a804"/><stop offset=".06" stop-color="#f4b102"/><stop offset=".129" stop-color="#fbb600"/><stop offset=".323" stop-color="#fdb700"/></linearGradient><path fill="url(#M~bdDD8~AbDFLBkBs2hIZa)" d="M27,40c0-0.815,0.396-1.532,1-1.989v-3.289c-0.595-0.346-1-0.984-1-1.723	c0-0.738,0.405-1.376,1-1.723V28h-8v15.171c0,0.531,0.211,1.039,0.586,1.414L22,46h3.639l1.653-1.401	C27.741,44.219,28,43.661,28,43.073v-1.084C27.396,41.532,27,40.815,27,40z"/><linearGradient id="M~bdDD8~AbDFLBkBs2hIZb" x1="14.956" x2="31.715" y1="4.953" y2="29.317" gradientUnits="userSpaceOnUse"><stop offset="0" stop-color="#fede00"/><stop offset="1" stop-color="#ffd000"/></linearGradient><path fill="url(#M~bdDD8~AbDFLBkBs2hIZb)" d="M37,15c0-7.18-5.82-13-13-13S11,7.82,11,15c0,0.338,0.025,0.669,0.051,1H11v8	c0,2.209,1.791,4,4,4h18c2.209,0,4-1.791,4-4v-8h-0.051C36.975,15.669,37,15.338,37,15z M24,7c2.209,0,4,1.791,4,4s-1.791,4-4,4	s-4-1.791-4-4S21.791,7,24,7z"/></svg>