<svg xmlns="http://www.w3.org/2000/svg"  viewBox="0 0 48 48" width="25px" height="25px" baseProfile="basic"><path fill="#64717c" d="M35.85,40.219l-27-14C8.021,25.79,7.5,24.934,7.5,24s0.521-1.79,1.35-2.219l27-14l2.301,4.438	L15.431,24l22.72,11.781L35.85,40.219z"/><path d="M38.15,12.22l-6.27,3.25l-0.47,0.24c-1.2-1.17-2.03-2.71-2.31-4.43l0.48-0.25l6.27-3.25L38.15,12.22z" opacity=".05"/><path d="M38.15,12.22l-6.27,3.25c-1.23-1.14-2.07-2.7-2.3-4.44l6.27-3.25L38.15,12.22z" opacity=".07"/><path d="M38.15,35.78l-6.27-3.25l-0.47-0.24c-1.2,1.17-2.03,2.71-2.31,4.43l0.48,0.25l6.27,3.25L38.15,35.78z" opacity=".05"/><path d="M38.15,35.78l-6.27-3.25c-1.23,1.14-2.07,2.7-2.3,4.44l6.27,3.25L38.15,35.78z" opacity=".07"/><linearGradient id="JB_CPnxu2awqV7p5jbkOsa" x1="32.05" x2="41.95" y1="5.05" y2="14.95" gradientUnits="userSpaceOnUse"><stop offset="0" stop-color="#33bef0"/><stop offset="1" stop-color="#0a85d9"/></linearGradient><circle cx="37" cy="10" r="7" fill="url(#JB_CPnxu2awqV7p5jbkOsa)"/><linearGradient id="JB_CPnxu2awqV7p5jbkOsb" x1="32.05" x2="41.95" y1="33.05" y2="42.95" gradientUnits="userSpaceOnUse"><stop offset="0" stop-color="#33bef0"/><stop offset="1" stop-color="#0a85d9"/></linearGradient><circle cx="37" cy="38" r="7" fill="url(#JB_CPnxu2awqV7p5jbkOsb)"/><path d="M18.35,25.51l0.46,0.24c-0.38,1.7-1.3,3.19-2.58,4.29l-0.47-0.24l-6.91-3.58	C8.02,25.79,7.5,24.93,7.5,24s0.52-1.79,1.35-2.22l6.91-3.58l0.47-0.24c1.28,1.1,2.2,2.59,2.58,4.29l-0.46,0.24L15.43,24	L18.35,25.51z" opacity=".05"/><path d="M15.43,24l2.92,1.51c-0.35,1.71-1.29,3.21-2.59,4.29l-6.91-3.58C8.02,25.79,7.5,24.93,7.5,24	s0.52-1.79,1.35-2.22l6.91-3.58c1.3,1.08,2.24,2.58,2.59,4.29L15.43,24z" opacity=".07"/><linearGradient id="JB_CPnxu2awqV7p5jbkOsc" x1="6.05" x2="15.95" y1="19.05" y2="28.95" gradientUnits="userSpaceOnUse"><stop offset="0" stop-color="#33bef0"/><stop offset="1" stop-color="#0a85d9"/></linearGradient><circle cx="11" cy="24" r="7" fill="url(#JB_CPnxu2awqV7p5jbkOsc)"/></svg>